<svg width="50" height="21" viewBox="0 0 50 21" fill="none" xmlns="http://www.w3.org/2000/svg">
<path d="M47.3438 4.84375H50L42.1875 20.0781H39.375L41.6406 15.8594L36.7969 6.79688C37.1094 7.26562 37.1875 7.89062 37.1875 8.59375V13.75C37.1875 14.4531 37.2656 15.2344 37.2656 15.8594H34.9219C34.9219 15.3125 34.8438 14.7656 34.8438 14.2969C33.5938 15.7812 32.1094 16.25 30 16.25C26.9531 16.25 25.3125 14.6094 25.3125 12.7344C25.3125 12.5 25.3125 12.2656 25.3906 12.0312C24.6875 14.5312 22.5 16.25 19.6094 16.25C17.8125 16.25 16.0938 15.625 15.0781 14.2969C15.0781 14.8438 15 15.3906 14.9219 15.8594H12.5C12.5 15.0781 12.5781 14.0625 12.5781 13.2812V0H15.0781V6.32812C16.3281 4.84375 18.0469 4.45312 19.6875 4.45312C22.5 4.45312 25.5469 6.32812 25.5469 10.3906C25.5469 10.7812 25.5469 11.25 25.4688 11.6406C26.0156 9.76562 28.125 9.0625 31.4062 8.98438C32.5 8.90625 33.6719 8.90625 34.6875 8.90625V8.67188C34.6875 6.79688 33.5156 6.09375 31.4844 6.09375C30 6.09375 28.9062 6.71875 28.75 7.8125H26.0938C26.4062 5.07812 29.2188 4.45312 31.7188 4.45312C33.8281 4.45312 35.7812 5 36.6406 6.48438L35.7812 4.84375H38.75L43.0469 13.4375L47.3438 4.84375ZM18.9844 14.5312C21.3281 14.5312 22.8906 12.8906 22.8906 10.3125C22.8906 7.8125 21.3281 6.17188 18.9844 6.17188C16.7188 6.17188 15.0781 7.8125 15.0781 10.3125C15.0781 12.8906 16.7188 14.5312 18.9844 14.5312ZM34.6875 10.8594V10.625C33.75 10.625 32.6562 10.625 31.6406 10.625C29.375 10.7031 27.9688 11.0938 27.9688 12.6562C27.9688 13.5938 28.6719 14.6094 30.7031 14.6094C33.2812 14.6094 34.6875 13.2031 34.6875 10.8594ZM2.5 11.0156C2.8125 15.5469 8.67188 15.4688 9.60938 12.6562H12.2656C11.7188 15.3906 8.90625 16.25 6.40625 16.25C1.95312 16.25 0 13.8281 0 10.4688C0 6.79688 2.03125 4.45312 6.48438 4.45312C10 4.45312 12.5781 6.25 12.5781 10.3125V11.0156H2.5ZM9.92188 9.29688C9.76562 5 3.125 4.92188 2.57812 9.29688H9.92188Z" fill="black"/>
</svg>
