<svg width="16" height="13" viewBox="0 0 16 13" fill="none" xmlns="http://www.w3.org/2000/svg">
<path d="M13.8693 3.675C13.8693 3.81563 13.8693 3.92813 13.8693 4.06875C13.8693 7.97813 10.9162 12.45 5.4881 12.45C3.8006 12.45 2.25372 11.9719 0.959973 11.1281C1.18497 11.1563 1.40997 11.1844 1.6631 11.1844C3.04122 11.1844 4.30685 10.7063 5.31935 9.91875C4.0256 9.89063 2.92872 9.04688 2.5631 7.86563C2.75997 7.89375 2.92872 7.92188 3.1256 7.92188C3.37872 7.92188 3.65997 7.86563 3.88497 7.80938C2.53497 7.52813 1.52247 6.34688 1.52247 4.9125V4.88438C1.91622 5.10938 2.39435 5.22188 2.87247 5.25C2.05685 4.71563 1.5506 3.81563 1.5506 2.80313C1.5506 2.24063 1.69122 1.73438 1.94435 1.3125C3.40685 3.08438 5.6006 4.26563 8.04747 4.40625C7.99122 4.18125 7.9631 3.95625 7.9631 3.73125C7.9631 2.1 9.28497 0.778125 10.9162 0.778125C11.76 0.778125 12.5193 1.11563 13.0818 1.70625C13.7287 1.56563 14.3756 1.3125 14.9381 0.975C14.7131 1.67813 14.2631 2.24063 13.6443 2.60625C14.235 2.55 14.8256 2.38125 15.3318 2.15625C14.9381 2.74688 14.4318 3.25313 13.8693 3.675Z" fill="white"/>
</svg>
