<svg width="19" height="8" viewBox="0 0 19 8" fill="none" xmlns="http://www.w3.org/2000/svg">
<path d="M17.9037 1.74375H18.86L16.0475 7.22813H15.035L15.8506 5.70938L14.1069 2.44688C14.2194 2.61563 14.2475 2.84063 14.2475 3.09375V4.95C14.2475 5.20313 14.2756 5.48438 14.2756 5.70938H13.4319C13.4319 5.5125 13.4037 5.31563 13.4037 5.14688C12.9537 5.68125 12.4194 5.85 11.66 5.85C10.5631 5.85 9.97249 5.25938 9.97249 4.58438C9.97249 4.5 9.97249 4.41563 10.0006 4.33125C9.74749 5.23125 8.95999 5.85 7.91936 5.85C7.27249 5.85 6.65374 5.625 6.28811 5.14688C6.28811 5.34375 6.25999 5.54063 6.23186 5.70938H5.35999C5.35999 5.42813 5.38811 5.0625 5.38811 4.78125V2.38419e-07H6.28811V2.27813C6.73811 1.74375 7.35686 1.60313 7.94749 1.60313C8.95999 1.60313 10.0569 2.27813 10.0569 3.74063C10.0569 3.88125 10.0569 4.05 10.0287 4.19063C10.2256 3.51563 10.985 3.2625 12.1662 3.23438C12.56 3.20625 12.9819 3.20625 13.3475 3.20625V3.12188C13.3475 2.44688 12.9256 2.19375 12.1944 2.19375C11.66 2.19375 11.2662 2.41875 11.21 2.8125H10.2537C10.3662 1.82813 11.3787 1.60313 12.2787 1.60313C13.0381 1.60313 13.7412 1.8 14.0506 2.33438L13.7412 1.74375H14.81L16.3569 4.8375L17.9037 1.74375ZM7.69436 5.23125C8.53811 5.23125 9.10061 4.64063 9.10061 3.7125C9.10061 2.8125 8.53811 2.22188 7.69436 2.22188C6.87874 2.22188 6.28811 2.8125 6.28811 3.7125C6.28811 4.64063 6.87874 5.23125 7.69436 5.23125ZM13.3475 3.90938V3.825C13.01 3.825 12.6162 3.825 12.2506 3.825C11.435 3.85313 10.9287 3.99375 10.9287 4.55625C10.9287 4.89375 11.1819 5.25938 11.9131 5.25938C12.8412 5.25938 13.3475 4.75313 13.3475 3.90938ZM1.75999 3.96563C1.87249 5.59688 3.98186 5.56875 4.31936 4.55625H5.27561C5.07874 5.54063 4.06624 5.85 3.16624 5.85C1.56311 5.85 0.859985 4.97813 0.859985 3.76875C0.859985 2.44688 1.59124 1.60313 3.19436 1.60313C4.45999 1.60313 5.38811 2.25 5.38811 3.7125V3.96563H1.75999ZM4.43186 3.34688C4.37561 1.8 1.98499 1.77188 1.78811 3.34688H4.43186Z" fill="white"/>
</svg>
