<svg width="15" height="15" viewBox="0 0 15 15" fill="none" xmlns="http://www.w3.org/2000/svg">
<path d="M2.27567 5.18125L5.14442 13C3.14754 12.0156 1.76942 9.99063 1.76942 7.6C1.76942 6.75625 1.93817 5.9125 2.27567 5.18125ZM11.7819 7.31875C11.7819 7.825 11.585 8.41563 11.3319 9.23125L10.7413 11.2281L8.57567 4.81563C8.94129 4.7875 9.25067 4.75938 9.25067 4.75938C9.58817 4.70313 9.53192 4.225 9.22254 4.25313C9.22254 4.25313 8.23817 4.3375 7.61942 4.3375C7.02879 4.3375 6.04442 4.25313 6.04442 4.25313C5.73504 4.225 5.67879 4.73125 6.01629 4.75938C6.01629 4.75938 6.32567 4.7875 6.63504 4.81563L7.56317 7.34688L6.26942 11.2844L4.07567 4.81563C4.44129 4.7875 4.77879 4.75938 4.77879 4.75938C5.08817 4.70313 5.06004 4.225 4.72254 4.25313C4.72254 4.25313 3.76629 4.3375 3.11942 4.3375C3.00692 4.3375 2.89442 4.3375 2.75379 4.3375C3.82254 2.70625 5.65067 1.6375 7.76004 1.6375C9.30692 1.6375 10.7132 2.22813 11.7819 3.2125C11.7538 3.18438 11.7257 3.18438 11.6975 3.18438C11.135 3.18438 10.7132 3.71875 10.7132 4.25313C10.7132 4.75938 10.9944 5.18125 11.3038 5.65938C11.5288 6.05313 11.7819 6.55938 11.7819 7.31875ZM7.84442 8.13438L9.70067 13.1687C9.70067 13.1969 9.72879 13.225 9.72879 13.2531C9.11004 13.4781 8.43504 13.5906 7.76004 13.5906C7.16942 13.5906 6.60692 13.5062 6.04442 13.3656L7.84442 8.13438ZM12.9913 4.73125C13.4694 5.60313 13.7225 6.55938 13.7225 7.6C13.7225 9.82188 12.5413 11.7344 10.7413 12.775L12.5694 7.4875C12.935 6.64375 13.0475 5.96875 13.0475 5.35C13.0475 5.125 13.0194 4.92813 12.9913 4.73125ZM14.735 7.6C14.735 11.4531 11.585 14.575 7.76004 14.575C3.90692 14.575 0.78504 11.4531 0.78504 7.6C0.78504 3.775 3.90692 0.625 7.76004 0.625C11.585 0.625 14.735 3.775 14.735 7.6ZM14.3975 7.6C14.3975 3.94375 11.4163 0.9625 7.76004 0.9625C4.07567 0.9625 1.09442 3.94375 1.09442 7.6C1.09442 11.2844 4.07567 14.2656 7.76004 14.2656C11.4163 14.2656 14.3975 11.2844 14.3975 7.6Z" fill="white"/>
</svg>
