<svg width="17" height="11" viewBox="0 0 17 11" fill="none" xmlns="http://www.w3.org/2000/svg">
<path d="M15.7006 1.91563C16.0381 3.09688 16.0381 5.62813 16.0381 5.62813C16.0381 5.62813 16.0381 8.13125 15.7006 9.34063C15.5319 10.0156 14.9975 10.5219 14.3506 10.6906C13.1412 11 8.35999 11 8.35999 11C8.35999 11 3.55061 11 2.34124 10.6906C1.69436 10.5219 1.15999 10.0156 0.991236 9.34063C0.653736 8.13125 0.653736 5.62813 0.653736 5.62813C0.653736 5.62813 0.653736 3.09688 0.991236 1.91563C1.15999 1.24063 1.69436 0.70625 2.34124 0.5375C3.55061 0.2 8.35999 0.2 8.35999 0.2C8.35999 0.2 13.1412 0.2 14.3506 0.5375C14.9975 0.70625 15.5319 1.24063 15.7006 1.91563ZM6.78499 7.90625L10.7787 5.62813L6.78499 3.35V7.90625Z" fill="white"/>
</svg>
