<svg width="24" height="25" viewBox="0 0 24 25" fill="none" xmlns="http://www.w3.org/2000/svg">
<g id="Phone / Light / Duotone" clip-path="url(#clip0_673_4106)">
<path id="Shape" opacity="0.25" d="M21.3905 20.0804L19.4856 21.9853C19.4856 21.9853 14.5358 24.1066 7.46477 17.0356C0.393706 9.96451 2.51503 5.01476 2.51503 5.01476L4.41996 3.10983C5.28058 2.24921 6.70391 2.35036 7.43417 3.32404L9.25245 5.74841C9.84963 6.54465 9.77044 7.65884 9.06666 8.36262L7.46477 9.96451C7.46477 9.96451 7.46477 11.3787 10.2932 14.2071C13.1216 17.0356 14.5358 17.0356 14.5358 17.0356L16.1377 15.4337C16.8415 14.7299 17.9557 14.6507 18.7519 15.2479L21.1763 17.0662C22.15 17.7964 22.2511 19.2198 21.3905 20.0804Z" fill="#8E2121"/>
<path id="Shape_2" d="M4.41995 3.10987L3.92923 3.60059L8.17188 9.25745L9.06665 8.36267C9.77044 7.65888 9.84962 6.5447 9.25244 5.74846L7.43417 3.32409C6.70391 2.35041 5.28057 2.24926 4.41995 3.10987Z" fill="#8E2121"/>
<path id="Shape_3" d="M21.3898 20.0804L20.899 20.5711L15.2422 16.3285L16.137 15.4337C16.8408 14.7299 17.9549 14.6507 18.7512 15.2479L21.1755 17.0662C22.1492 17.7965 22.2504 19.2198 21.3898 20.0804Z" fill="#8E2121"/>
</g>
<defs>
<clipPath id="clip0_673_4106">
<rect width="24" height="24" fill="white" transform="translate(0 0.5)"/>
</clipPath>
</defs>
</svg>
